<?xml version="1.0" encoding="utf-8"?>
<!-- Generator: Adobe Illustrator 17.0.0, SVG Export Plug-In . SVG Version: 6.00 Build 0)  -->
<!DOCTYPE svg PUBLIC "-//W3C//DTD SVG 1.1//EN" "http://www.w3.org/Graphics/SVG/1.1/DTD/svg11.dtd">
<svg version="1.1" id="Capa_1" xmlns="http://www.w3.org/2000/svg" xmlns:xlink="http://www.w3.org/1999/xlink" x="0px" y="0px"
	 width="50px" height="50px" viewBox="-16 -16 50 50" enable-background="new -16 -16 50 50" xml:space="preserve">
<g>
	<path fill="#FE0000" d="M9.275-4.913C17.7-4.831,22.977-5.355,23.69,3.983h10.274c0-14.466-12.616-16.416-24.957-16.416
		c-12.341,0-24.957,1.95-24.957,16.416h10.194C-4.967-5.533,0.92-4.995,9.275-4.913z"/>
	<path fill="#FE0000" d="M-10.854,9.484c2.502,0,4.584,0.15,5.047-2.312c0.062-0.335,0.098-0.714,0.098-1.152h-0.119H-16
		C-16,9.682-13.696,9.484-10.854,9.484z"/>
	<path fill="#FE0000" d="M23.756,6.02H23.66c0,0.442,0.038,0.822,0.109,1.152c0.488,2.27,2.567,2.129,5.061,2.129
		c2.855,0,5.17,0.188,5.17-3.281C34,6.02,23.756,6.02,23.756,6.02z"/>
	<path fill="#FE0000" d="M18.737,3.527V2.072c0-0.651-0.75-0.691-1.676-0.691h-1.512c-0.925,0-1.675,0.041-1.675,0.691v1.254v0.973
		H3.177V3.325V2.072c0-0.651-0.75-0.691-1.675-0.691h-1.513c-0.925,0-1.675,0.041-1.675,0.691v1.455v1.27
		C-4.123,7.329-12.097,18.11-12.387,19.415l0.004,8.709c0,0.804,0.655,1.459,1.459,1.459h38.901c0.804,0,1.459-0.655,1.459-1.459
		v-8.753c-0.287-1.267-8.26-12.043-10.698-14.575V3.527z M1.636,24.011c-1.033,0-1.871-0.837-1.871-1.871s0.838-1.871,1.871-1.871
		s1.871,0.837,1.871,1.871S2.669,24.011,1.636,24.011z M1.636,18.445c-1.033,0-1.871-0.837-1.871-1.871
		c0-1.034,0.838-1.871,1.871-1.871s1.871,0.837,1.871,1.871C3.507,17.608,2.669,18.445,1.636,18.445z M1.636,12.88
		c-1.033,0-1.871-0.837-1.871-1.871c0-1.033,0.838-1.871,1.871-1.871s1.871,0.838,1.871,1.871C3.507,12.044,2.669,12.88,1.636,12.88
		z M8.485,24.011c-1.033,0-1.871-0.837-1.871-1.871s0.838-1.871,1.871-1.871c1.034,0,1.871,0.837,1.871,1.871
		S9.519,24.011,8.485,24.011z M8.485,18.445c-1.033,0-1.871-0.837-1.871-1.871c0-1.034,0.838-1.871,1.871-1.871
		c1.034,0,1.871,0.837,1.871,1.871C10.356,17.608,9.519,18.445,8.485,18.445z M8.485,12.88c-1.033,0-1.871-0.837-1.871-1.871
		c0-1.033,0.838-1.871,1.871-1.871c1.034,0,1.871,0.838,1.871,1.871C10.356,12.044,9.519,12.88,8.485,12.88z M15.334,24.011
		c-1.034,0-1.871-0.837-1.871-1.871s0.837-1.871,1.871-1.871s1.871,0.837,1.871,1.871S16.368,24.011,15.334,24.011z M15.334,18.445
		c-1.034,0-1.871-0.837-1.871-1.871c0-1.034,0.837-1.871,1.871-1.871s1.871,0.837,1.871,1.871
		C17.205,17.608,16.368,18.445,15.334,18.445z M15.334,12.88c-1.034,0-1.871-0.837-1.871-1.871c0-1.033,0.837-1.871,1.871-1.871
		s1.871,0.838,1.871,1.871C17.205,12.044,16.368,12.88,15.334,12.88z"/>
</g>
</svg>
